<?xml version="1.0" standalone="no"?>
<!DOCTYPE svg PUBLIC "-//W3C//DTD SVG 20010904//EN"
 "http://www.w3.org/TR/2001/REC-SVG-20010904/DTD/svg10.dtd">
<svg version="1.0" xmlns="http://www.w3.org/2000/svg"
 width="100.000000pt" height="100.000000pt" viewBox="0 0 100.000000 100.000000"
 preserveAspectRatio="xMidYMid meet">
<metadata>
Created by potrace 1.11, written by Peter Selinger 2001-2013
</metadata>
<g transform="translate(0.000000,100.000000) scale(0.100000,-0.100000)"
fill="#000000" stroke="none">
<path d="M380 946 c-196 -55 -332 -227 -339 -431 -7 -196 120 -379 310 -443
78 -27 197 -28 280 -3 189 59 319 236 320 436 1 253 -206 457 -461 454 -36 0
-85 -6 -110 -13z m260 -52 c65 -25 139 -79 183 -133 50 -62 79 -140 85 -232
11 -173 -78 -325 -236 -400 -58 -28 -79 -33 -158 -36 -181 -5 -316 76 -393
236 -30 64 -35 86 -37 156 -3 90 10 148 52 226 49 89 159 173 261 199 55 14
191 5 243 -16z"/>
<path d="M274 789 c-10 -16 -18 -182 -10 -212 3 -14 23 -41 43 -60 l37 -35
-13 -54 c-17 -77 -16 -180 2 -215 21 -39 56 -55 88 -39 51 25 67 116 42 237
l-14 69 41 38 c39 38 42 46 43 117 0 42 -12 145 -19 156 -8 13 -231 12 -240
-2z m62 -91 c-2 -70 7 -100 28 -92 10 4 14 22 14 57 0 95 1 97 21 97 17 0 19
-7 17 -71 -1 -42 3 -74 10 -80 20 -16 32 14 31 74 -1 32 1 64 5 70 13 19 27
-12 29 -63 1 -25 2 -54 3 -65 2 -38 -15 -71 -44 -89 -39 -23 -45 -51 -27 -129
24 -107 11 -197 -29 -197 -35 0 -45 115 -19 224 l14 59 -45 43 c-44 43 -44 44
-44 111 0 80 8 113 25 113 9 0 12 -18 11 -62z"/>
<path d="M578 788 c-2 -7 -4 -134 -3 -283 0 -304 6 -335 56 -335 19 0 34 8 44
23 20 31 24 111 9 168 -11 43 -10 51 18 113 37 84 39 153 7 221 -31 66 -119
129 -131 93z m59 -65 c61 -54 70 -137 24 -240 -30 -70 -30 -71 -17 -136 14
-68 9 -128 -12 -135 -7 -2 -12 7 -13 25 -2 36 -5 503 -3 503 0 0 10 -8 21 -17z"/>
</g>
</svg>
